/* XPM */
static char *_e4c183a7f2b4c318f9fcbd91844cdb3cmYTgZ0GbdHIsNnV[] = {
/* columns rows colors chars-per-pixel */
"50 50 255 2 ",
"   c #352919",
".  c #26261E",
"X  c #2C2B23",
"o  c #382A26",
"O  c #3B3123",
"+  c #3C342B",
"@  c #39382B",
"#  c #3B3835",
"$  c #45351D",
"%  c #41291D",
"&  c #4A3B2C",
"*  c #463628",
"=  c #543D2D",
"-  c #56392A",
";  c #4D3C34",
":  c #453C37",
">  c #553C32",
",  c #583730",
"<  c #4C2D2A",
"1  c #633E2B",
"2  c #633D34",
"3  c #58462B",
"4  c #4B4134",
"5  c #4C433A",
"6  c #49473B",
"7  c #544333",
"8  c #5B4534",
"9  c #53433B",
"0  c #5C453C",
"q  c #544B3C",
"w  c #5C4B3C",
"e  c #574934",
"r  c #554B36",
"t  c #68482A",
"y  c #6B542E",
"u  c #634434",
"i  c #644C35",
"p  c #644A3C",
"a  c #6B4C3B",
"s  c #694938",
"d  c #764B3A",
"f  c #6A5437",
"g  c #73543B",
"h  c #735C3B",
"j  c #795838",
"k  c #7D643C",
"l  c #544A42",
"z  c #5B4C42",
"x  c #574844",
"c  c #5B534B",
"v  c #5A5547",
"b  c #5B5654",
"n  c #4B4549",
"m  c #684C43",
"M  c #6C5343",
"N  c #64554A",
"B  c #6B5A4C",
"V  c #685847",
"C  c #745344",
"Z  c #7E5A43",
"A  c #7C5B4D",
"S  c #775848",
"D  c #645C54",
"F  c #6A5C53",
"G  c #645755",
"H  c #775E52",
"J  c #764E4A",
"K  c #6C634A",
"L  c #786448",
"P  c #6B635C",
"I  c #676357",
"U  c #736354",
"Y  c #796858",
"T  c #7C7156",
"R  c #6D6966",
"E  c #766A66",
"W  c #7C746A",
"Q  c #797673",
"!  c #6B5E65",
"~  c #865838",
"^  c #A15F3F",
"/  c #86663A",
"(  c #976A3A",
")  c #A1723D",
"_  c #855D4B",
"`  c #875A47",
"'  c #985C48",
"]  c #825E51",
"[  c #834D43",
"{  c #85634C",
"}  c #8B634D",
"|  c #896847",
" . c #96674A",
".. c #9A7648",
"X. c #856353",
"o. c #8C6453",
"O. c #8D6A53",
"+. c #8C6B5B",
"@. c #886757",
"#. c #926655",
"$. c #946A54",
"%. c #9B6D54",
"&. c #946C5A",
"*. c #9A6D5B",
"=. c #976658",
"-. c #8C7B5D",
";. c #8A7558",
":. c #9B715C",
">. c #967656",
",. c #82774E",
"<. c #A7674B",
"1. c #A47D44",
"2. c #A47A4C",
"3. c #AA7D4B",
"4. c #A57748",
"5. c #B57C4C",
"6. c #A86954",
"7. c #B96D56",
"8. c #A97656",
"9. c #BB755C",
"0. c #BC7B5C",
"q. c #B97756",
"w. c #B36C4B",
"e. c #996F62",
"r. c #857769",
"t. c #9C7161",
"y. c #967862",
"u. c #867B73",
"i. c #8A756F",
"p. c #A37664",
"a. c #B87964",
"s. c #AD7168",
"d. c #A15B42",
"f. c #C3755B",
"g. c #C47C5C",
"h. c #CB7C5D",
"j. c #C67955",
"k. c #D47D5B",
"l. c #C2744E",
"z. c #C37C63",
"x. c #CB7E63",
"c. c #C77D6C",
"v. c #D57D66",
"b. c #9A8159",
"n. c #AB834D",
"m. c #B4844C",
"M. c #B9894C",
"N. c #AD8353",
"B. c #A88656",
"V. c #B38552",
"C. c #BB8D53",
"Z. c #B88858",
"A. c #BE935B",
"S. c #BD9356",
"D. c #B2914C",
"F. c #998767",
"G. c #8A8378",
"H. c #92857D",
"J. c #998775",
"K. c #978C6C",
"L. c #A58A69",
"P. c #BA8463",
"I. c #A9946A",
"U. c #B79A6A",
"Y. c #AA9975",
"T. c #B29C74",
"R. c #BA9D73",
"E. c #B59A77",
"W. c #A28772",
"Q. c #BBA16B",
"!. c #ADA278",
"~. c #B5A275",
"^. c #BBA474",
"/. c #BAA47B",
"(. c #BBA878",
"). c #BBB078",
"_. c #CC835D",
"`. c #C38958",
"'. c #D6835C",
"]. c #CB9655",
"[. c #CB955B",
"{. c #C89757",
"}. c #D59C59",
"|. c #C7904B",
" X c #D4A05D",
".X c #C9A05E",
"XX c #CC8363",
"oX c #CC846B",
"OX c #C88566",
"+X c #D28464",
"@X c #D58962",
"#X c #D3846A",
"$X c #DB8B6B",
"%X c #DA8868",
"&X c #CE9B64",
"*X c #C79765",
"=X c #D19A65",
"-X c #D88B73",
";X c #CA9173",
":X c #E38767",
">X c #E18C6E",
",X c #CBA36D",
"<X c #D7A366",
"1X c #C2A475",
"2X c #C3A67B",
"3X c #C4AB7B",
"4X c #C8AA79",
"5X c #C5B27C",
"6X c #CDB27D",
"7X c #C8B87D",
"8X c #D3B17B",
"9X c #E1A766",
"0X c #E5995D",
"qX c #967F89",
"wX c #778381",
"eX c #958C83",
"rX c #998E86",
"tX c #959289",
"yX c #9D938B",
"uX c #9A9588",
"iX c #999792",
"pX c #8B8A86",
"aX c #A2948C",
"sX c #A3998D",
"dX c #A99987",
"fX c #A29791",
"gX c #A59B92",
"hX c #AB9D94",
"jX c #A99C98",
"kX c #B39F97",
"lX c #B69F82",
"zX c #9EA49B",
"xX c #BBA982",
"cX c #ABA195",
"vX c #ACA39A",
"bX c #A5A498",
"nX c #B2A59C",
"mX c #B4A99E",
"MX c #B6A499",
"NX c #B5ABA3",
"BX c #BAACA3",
"VX c #B8A9A6",
"CX c #BCB2A9",
"ZX c #B1ABA9",
"AX c #C4AC81",
"SX c #CBAD82",
"DX c #C2A887",
"FX c #CDB384",
"GX c #C8B688",
"HX c #D5B788",
"JX c #D6B78E",
"KX c #C1ADA8",
"LX c #C1B3AC",
"PX c #C3BAB1",
"IX c #DAC392",
/* pixels */
"_ o.Y u I.GX5XSXGX).(.R.Q.~.U.3X~./.-.f y.&._ $.$.&.o.&.o.o.o.{ = +.t.=.#.&.@.=.O.o.&.&.@.} *.o.] } ",
"{ X.L C xX2X4X4X2XE.T.E.T./.xX/.~.xXF.7 X.@.&.o.o.o.#.#.o.#._ { 8 ;.$.=.O.{ ` } { o._ _ O.O.o.} X.o.",
"o.X.C S DX!./.R.R.2XGX3XT.I.F.;.Y K 9 O   9 m m a C S C S ] A A = e.*.$.#.o.X._ ] o.o.&.O.X.A X._ X.",
"A J > 7 r.,.K.F.T K V e @ @ D u.G.G.H.tXi.G.G.r.W Y F B B c z * , +.*.$.} { o.o.o.o.` _ { ` o.o.] o.",
"q 4 ; > 8 s C C s C [ J * v ZXCXMXBXCXvXBXNXCXBXCXNXmXBXnXsXeXq > p A @.S M M M m B p p B N s u 8 p ",
"w.w.g.@X@X:X%X:Xg.>Xv.v. .8 sXMXhXnXNXhXnXvXnXcXgXhXaXhXhXjXfXN ; 7 7 8 = 0 e r w w w z o * M } 6.7.",
"-X#X#X-XXXc.f.x.oXx.f.OXa.= I zXaXrXyXcXyXaXfXyXaXfXfXhXaXrXr.x -.Y.!.R.~.xX~.L.8X1X1XDXu ` h.%X%X@X",
"j.+X@X_.+Xx._.+X_._.j.h.7.s.m u.nXfXyXeXH.H.eXeXH.W E D v z # + R.JX3X8XSXSXFX6X2XAXT.lX= p.oX'.x.XX",
"h._.XXg.g.OX_._.z.g.x.x.h.a.p : b b Y U B H H Y Y M H S ` { S > I.HXU.1XFX3X3X1X/.T.!.y.6 8.j.XX+X+X",
"#X#Xx.f.7.f.h.h.0.8.8.<.~ ~ j p % A &.#.e.:.:.:.%.%.*.%.%.$.+.0 r.xXT.Y.Y.Y.AX~.Q.U.I.3XM 6.h.v.+XXX",
"j.f.x.x.oXoXa.6.' ` Z ~ ( M.{.{.8 ;.t.} #.$.$. .} &.*.e.=.o.r.0 O 9 e z 4 * Y J.I.lXY.W.q ~ g.a.a.g.",
"OX0.0.8.' j d Z ) ..B.8.U.[.].].S o.%.$.&.&.o.$.:.e.&.O.} #.} j b rXyXtXW 5 D V D D q o X $.@Xq.+Xx.",
"` d d j / ( ..D.N.V.m.m.].].{.S.S &.o.*.o.&.o.#.` } | { { O.} ` N CXNXNXCXnXCXnXbXeXG.r.5 6.+X:Xf.9.",
"j ` ..N.V.m.M.[.}.{.M.]. X{.P.g 3 :.O.O.O.{ o.{ +.&.O.@.Y F J s > hXZXcXnXhXnXNXnXBXKXmXQ g ~ d i i ",
"1.n.S.`.[.=X*X`.C.A.V.C.M.V.>.3 - X.*.o.#.A C s x & u d a 2 m u < J.BXcXhXhXvXcXMXaXJ.vXwX* f L 2.2.",
"].}.<X].|.{.M.4...1.2...( / 3 $ ; O w 7 v P P u.I < 8.-X%Xh.XX@XY H tXrXaXdXyXjXgXaXeXrXv t ..8.m.m.",
"e h @.8 & q u j B N F F F F P r.H.yXhXH.aXBXBXBXBXE ` -X`.`.x.v.s.2 E tXtXiXeXQ u.u.r.D & m w & i w ",
"F.-.b.b.B X Q ZXvXmXBXnXVXPXCXCXNXBXBXnXnXmXvXvXZXtXs j.h.s.7.w.~ $ = U H L w 4 + z F.I.).GX!.,.Y.L.",
"HXHXHXIXF.M CXtXmXnXMXBXBXvXsXhXmXfXBXcXhXCXrXhXmXhX7 S d 1 g / m.n.N.,X[.[.V.Z.3 -.IXDXFX4X4X3XHXFX",
"Y.~.1X2XF.Y LXcXnXnXNXnXvXhXaXsXaXaXsXaXyXhXaXfXsXyXv # _ n.I.*X=X,XD.{.{.{.[.=Xy j DXGX2X2X2XR.^.1X",
"U.T./.Y.Y r.NXMXmXnXkXgXgXfXyXrXaXaXyXaXsXeXrXyXtXkX! y <X}.}.5.|.[.].{.{.{.].].C ,.JX5XQ.U.T.DX/.E.",
"^.Q./.xXc l i.cXkXjXhXfXsXyXrXsXyXrXgXyXgXgXjXfXeXE 9 3 &X}.}.C.A.`.`.`.{.A.D.n.M f DXxX).5X5X^.R.T.",
"G.-.K m l + : R G.H.eXu.u.eXsXiXyXbXeXG.u.W W F 4   K & C S.5.5.3.3.V.3...( ~ k r   O 7 Y T ,.F.F.L.",
"9 * C { p.:.A a 4 : + @ : l b P b 4 : * O ; * : 9 e u s i S Z f w 7 & @ @ l 5 B P P c G D b c c V N ",
"R z W.=.#.e.8.%.*.&.A B m p S > o ~ q.a.h.'.7.c.#X+Xh.+X@X'.j.g.7.q.w.` ; zXyXMXLXmXKXmXCXNXhXJ.yXcX",
"F 3 %.| :.+.+.X.%.} $.t.t.6.t.[ 0 $X:Xv.oX0.`.$X+XXXz.XX#Xx.#XoX-XXX$X-Xu eXLXgXgXMXcXcXvXfXNXNXmXvX",
"pX* e.%.*.$.$.%.6.#.*.} } { L 8 < XX'.g.z.#Xh._._.h.h.#Xh.7.XXx.0._.h.z.a eXKXnXmXMXcXcXNXvXbXjXcXgX",
"G.9 +.{ o.o.@.Y Y @.X._ O.o.+.B + Z.'.;X#Xx.x.h.0.q.`.a.q.6.0.z.0.5.h.a.a hXBXhXmXsXaXaXaXsXJ.yXrXyX",
"R ; A >.} _ o.o.{ O.{ #.%._ Z m X q.:Xj.j.7.q.0.h.f._.z.#X#X_._.v.f.v.6.* G.cXbXaXfXfXaXyXeXsXpXtXeX",
"# G ; u ] ` =.o.&.X.m , = p N x n 1 9.g.k.%X-XoXc.<.^ <.<.'  .w.6.6.` 2 O # ; 5 I W Q Q r.E W b @ : ",
"/ ,.i * 3 & * : * O b I E fXNXkXvXY 4 _ #X9.' ~ m m g ;.x o ; 9 w v U r.uXuXu.z l n @ * f j g a y j ",
"}.[.,X4.N.A.2...{ i hXPXVXNXnXnXNXNXiXE u h ;.I.-.R.GXGXL N yXfXeXiXBXLXvXNXkXuXCXu.  f ,X X X].[.<X",
"*X[.[.=X3.,XC.{.M.3 eXMXkXaXaXbXsXNXKXJ.L IX6X6XHX6X6X-.D cXBXnXdXnXBXnXjXnXvXVXhXn e M. X[.}.{.[.{.",
"m.M.|.[.&X[.}.&XS.r pXNXjXcXsXsXbXcXrXP P J.Y F ;.T U v aXKXMXmXfXgXfXvXkXhXnXdXE O  .C.S.C.m.Z.m.3.",
"2.8.3.m.`.M.|.{.0X{ F aXu.G F W D c c 9 f h k ..>.g   b VXkXCXtXrXiXeXiXfXeXtXpX: k C.4.b.n.2.8...n.",
"V.N.1.1.3.n.2.N.M.L   t i L .. .) m.[.{.{.}.}.].}.C.y @ u.NXhXtXdXY.dXdXaXhXeXv $ B.].Z.n.n.C.m.M.B.",
") n.Z.U.N.1.B.B.V.y k <X{.}.}.}.C.{.M.C.A.2.2.V.n.3./ O yXmXdXcXvXjXtXr.R G 5 +   7 y h 3 h k / / ( ",
"g L 8 M y t / | B.g / <X{.D.V.N.P.Z.Z.m.Z.V.Z.n.2...B.q R Q N w b : 5 0 u g Z ` S x @ O u V K L B B ",
"GX!.6 * a d _ [ 8 5 = ~ j t y C f y k / h h y f y j 3 * @ > a S ~ 8.a.g.XX%X:X'.x.oXC g HXJXGXHX3X3X",
"4X3XF.~ ;X_.:X_.q.6.8.<.} Y C > V K.!.K.b.W.B y.F.Y U O 1 g.>X-X#X$X+X%X#Xh.XXXXl.@XC z ).5X~.^.1X3X",
"R.FXGXM a._.q.z.XXh.+XOXXX%Xa.* Y.IX4XHXHXHXHX8X4XR.HXY o <.@Xx.%X+X#Xh.h.+X_._.k.#Xa M lX/.~.^.R.~.",
"I.b.Y.L <.j.c.'.XXh._.-X+Xk.7.p I.5XQ.7X3X~./.6XAX~.1XT @ } $Xh.h._.q.oX#Xh.oXz.9.=.; 5 5 U K U F.R.",
"v l q # > s > j ` ' =. .^ q.6.< L 1X4XFX5X^.AX2X/.AX(.L.q p +Xk.g.XXq.XXXXg.9.z.%.u r.cXaXu.Y P c 6 ",
"iXNXvXuXuXiXP 3 | ..| | / j & # J.JXE.E.Q.I.E.E.R.U.T.*Xr.O 8.%Xg.9.h.v.7.#X#X7.d V nXnXBXBXLXZXfXx ",
"G.aXdXhXzXbXeX;.9X}.M.C.B.B.V . -.~.~.(.7X5X^.).2XxX!.^.J.# f d ^ x.z.6.d t 8 * o : I P P E R pXH.c ",
"9 q m b I v n $ g k j g Z h 7 4 q v c c h T B V C T U L b # 5 x 6 4 = S L V p m m 0 ; > 8 p > 8 l 9 ",
"` Z o., $ b.Y.!.-.K.xXGXAXQ.Q.1XI.T 9 + V S J H s 9 8 i 9 = z R ! o J s.:.p.8.s.:.*.$.O.o.&.*.%.*.*.",
"#.@.e.J L.HX1XHXFX6X4X2XSX5X5XGX6XIXy.u t.&.p.%.%.r.:.%.&.<.X.w O e +.:.$.;.O.#.*.:.&.e.e.e.#.%.#.%.",
"@.*.&.m ~.4X4XSX5XFXFXL.U.FX3X/.SX6XF.0 *.$.$.$.#.$.*.*.&.o.&.t.5 M L.*.%.o.&.&.o.o.$.*.$.*.o.@.*.o.",
"X.o._ 0 !.FX4XAX4X4XFX2X(.FX^./.FX6XF.w t.$.&.$.&.*.&.$.#.o.#.O.; m p.%.#.o.&.$.&.&.%.:.$.*.X.X.&.} "
};
