/* XPM */
static char *Sans_titre__9___1__removebg_preview__1___1___1_1649325141[] = {
/* columns rows colors chars-per-pixel */
"50 50 72 1 ",
"  c None",
". c #725F44",
"X c #75634A",
"o c #7A664B",
"O c #776650",
"+ c #7F6B53",
"@ c #826B4E",
"# c #8C7354",
"$ c #86745D",
"% c #967D5B",
"& c #997F5C",
"* c #8C7A61",
"= c #917E63",
"- c #9C815E",
"; c #968165",
": c #9A8468",
"> c #9F8869",
", c #A58A65",
"< c #A98C66",
"1 c #A78C68",
"2 c #AB8F6B",
"3 c #AF916A",
"4 c #B0936C",
"5 c #A28D71",
"6 c #A49177",
"7 c #AC9575",
"8 c #A9957B",
"9 c #B49770",
"0 c #B59871",
"q c #B99B73",
"w c #B39D7E",
"e c #BDA17B",
"r c #C2A177",
"t c #C4A57B",
"y c #C9A97F",
"u c #B5A184",
"i c #B9A182",
"p c #BFA98B",
"a c #BFAC93",
"s c #C0A683",
"d c #C7A980",
"f c #CBAD85",
"g c #C5AD8C",
"h c #C8AE8A",
"j c #CEB086",
"k c #CEB088",
"l c #D1B48B",
"z c #C4B095",
"x c #CCB494",
"c c #CBB79B",
"v c #CFB899",
"b c #D2B791",
"n c #D4B994",
"m c #D6BC99",
"M c #D8BE9B",
"N c #CEBAA2",
"B c #D2BDA3",
"V c #D9C09E",
"C c #DBC4A4",
"Z c #D7C3AB",
"A c #DDC6AA",
"S c #DFC9AC",
"D c #DDC9B2",
"F c #E0C7A8",
"G c #E1CBAE",
"H c #E3CEB3",
"J c #E5D1B6",
"K c #E6D2BA",
"L c #E9D5BE",
"P c #EAD7C0",
"I c #ECDAC4",
"U c #EEDDC9",
/* pixels */
"                                                  ",
"                                                  ",
"                                                  ",
"                                                  ",
"                                                  ",
"                                                  ",
"                                                  ",
"                                                  ",
"                                                  ",
"                                                  ",
"                                    X*+           ",
"                                   $VDv;          ",
"                                  OvUISe          ",
"                                  ;JUIC1          ",
"                                  7LILkX          ",
"                                  pIPShX O        ",
"                                 $ZPAGJNNDio      ",
"                                waIGAPIUUIA3      ",
"                              =gALLHJIUIIIKe      ",
"                             1vHPLKJJGAACCM9      ",
"                            uCJIPJAVnlkyteq#      ",
"                          :xHIUKGVbf0-#oXX        ",
"                         uSIIIJBlt<@              ",
"                       5ZPIPLAly,@                ",
"                     =zKLLPHmf4#                  ",
"                    uHLJJHVlr%                    ",
"                  8ZPLHHCly4@                     ",
"                5NIIKHGMjt-                       ",
"         $    6vLIPJGAnf0#                        ",
"      ;NDHDZZDPUPIHGCnf<                          ",
"      pIIIUUIHGKLJAVMy%                           ",
"      iHPIIIIHCKLJAM0@                            ",
"      2nCAHHGKLKLGn4X                             ",
"       %<0ynKLHKFn4                               ",
"          -CIKHFmq                                ",
"           BUULCh#                                ",
"           DUULM9                                 ",
"          ,JUICf#                                 ",
"          ,nAAk3                                  ",
"           4rt4                                   ",
"            ##                                    ",
"                                                  ",
"                                                  ",
"                                                  ",
"                                                  ",
"                                                  ",
"                                                  ",
"                                                  ",
"                                                  ",
"                                                  "
};
