/* XPM */
static char *Sans_titre__11__removebg_preview__1_1649326010[] = {
/* columns rows colors chars-per-pixel */
"50 50 197 2 ",
"   c None",
".  c #040403",
"X  c #090605",
"o  c #0C0907",
"O  c #0C0B0A",
"+  c #130D0A",
"@  c #140806",
"#  c #17100D",
"$  c #1C120D",
"%  c #1B1613",
"&  c #1C1817",
"*  c #151413",
"=  c #23130E",
"-  c #2A130E",
";  c #231610",
":  c #241913",
">  c #2C1C14",
",  c #311E15",
"<  c #26211F",
"1  c #2C221D",
"2  c #332117",
"3  c #35231A",
"4  c #3B251A",
"5  c #3D291D",
"6  c #1D1F20",
"7  c #2B2521",
"8  c #2E2926",
"9  c #322A26",
"0  c #3C2B22",
"q  c #342D29",
"w  c #382D28",
"e  c #3D312B",
"r  c #37302D",
"t  c #3D3633",
"y  c #383635",
"u  c #560E0C",
"i  c #5A0C0A",
"p  c #4D1D15",
"a  c #4E120E",
"s  c #690808",
"d  c #7D0708",
"f  c #740B0B",
"g  c #64110E",
"h  c #442A1D",
"j  c #492D1F",
"k  c #552A1D",
"l  c #61271C",
"z  c #642B1E",
"x  c #442E21",
"c  c #4C2F21",
"v  c #443025",
"b  c #4C3223",
"n  c #43362F",
"m  c #4A382F",
"M  c #533424",
"N  c #5A3625",
"B  c #55392A",
"V  c #5C3C2B",
"C  c #573729",
"Z  c #433A36",
"A  c #4D3C33",
"S  c #463D39",
"D  c #543E32",
"F  c #5A3F32",
"G  c #622F21",
"H  c #643D2B",
"J  c #693F2B",
"K  c #693324",
"L  c #703E2B",
"P  c #46403D",
"I  c #4B413C",
"U  c #514038",
"Y  c #64422E",
"T  c #6B422D",
"R  c #71442F",
"E  c #654533",
"W  c #6A4631",
"Q  c #6F4934",
"!  c #6B4C3A",
"~  c #744731",
"^  c #744B35",
"/  c #7C4C34",
"(  c #6F503E",
")  c #7B523A",
"_  c #77533F",
"`  c #4A4644",
"'  c #544942",
"]  c #5C4F48",
"[  c #545353",
"{  c #585655",
"}  c #5C5956",
"|  c #6E5547",
" . c #635F5D",
".. c #705F56",
"X. c #62605F",
"o. c #7A6458",
"O. c #6B6A6B",
"+. c #676665",
"@. c #796D67",
"#. c #7B7C7C",
"$. c #737373",
"%. c #9E090A",
"&. c #900809",
"*. c #8B090A",
"=. c #B80A0C",
"-. c #CC0C0E",
";. c #D30D0E",
":. c #DC0E0F",
">. c #814E36",
",. c #845037",
"<. c #82563D",
"1. c #8C563B",
"2. c #85583E",
"3. c #88593F",
"4. c #93593D",
"5. c #995C3F",
"6. c #8C5C41",
"7. c #825F4B",
"8. c #9B5E41",
"9. c #925D41",
"0. c #8C624A",
"q. c #976245",
"w. c #9C6244",
"e. c #946C58",
"r. c #81695C",
"t. c #A36445",
"y. c #A96646",
"u. c #AC6847",
"i. c #A16748",
"p. c #A76A4A",
"a. c #AE6B4A",
"s. c #B46D4A",
"d. c #B3714E",
"f. c #BC724E",
"g. c #BB7551",
"h. c #BC7959",
"j. c #A77157",
"k. c #826E64",
"l. c #8C766C",
"z. c #AE7B62",
"x. c #C27651",
"c. c #C67953",
"v. c #CB7B54",
"b. c #CE7F58",
"n. c #D27F57",
"m. c #A68879",
"M. c #B68B76",
"N. c #D58159",
"B. c #DB855B",
"V. c #DF885E",
"C. c #D38057",
"Z. c #E38A5E",
"A. c #E0875D",
"S. c #DA8B66",
"D. c #DD916C",
"F. c #C38F75",
"G. c #E68C60",
"H. c #EB8E61",
"J. c #EE9163",
"K. c #E7956E",
"L. c #F49465",
"P. c #F89667",
"I. c #F99768",
"U. c #FB9969",
"Y. c #EC9C76",
"T. c #FCA176",
"R. c #FCA479",
"E. c #7F8182",
"W. c #838383",
"Q. c #8A8A89",
"!. c #8F8F90",
"~. c #919293",
"^. c #9A9A9B",
"/. c #969899",
"(. c #AF9284",
"). c #B89787",
"_. c #9F9FA0",
"`. c #A8A9AA",
"'. c #B5B6B6",
"]. c #BABBBB",
"[. c #B5B7B8",
"{. c #CDA794",
"}. c #DFB098",
"|. c #D5AA95",
" X c #FEAC85",
".X c #F7AE8A",
"XX c #E5AE94",
"oX c #E9B399",
"OX c #F9B695",
"+X c #CDCECE",
"@X c #C3C4C4",
"#X c #D5D5D5",
"$X c gray85",
"%X c #E9E9E9",
"&X c #E1E1E2",
"*X c #F3F3F3",
"=X c #FDFDFD",
/* pixels */
"                                                                                                    ",
"                                                                                                    ",
"                                                                                                    ",
"                                                                                                    ",
"                                      & 8 &                                                         ",
"                                    : | o.! 2         7 r Z Z Z e 8 &         * q 9                 ",
"                                  X A 7.,.V 3 # Z o.m.{.XXoXoXoX}.|.).l.] 7 o 3 | 7.1               ",
"                              7 o.S V 6.<.v A (.oXOX XT.U.I.I.I.P.T.R..XOX{.k.1 H 3.b Z q           ",
"                            O E 0.B Y 2.2.h M. XT.L.P.L.I.L.U.L.P.P.P.P.P.T.OX7.B ) H ! ( #         ",
"                            % ^ 2.W ^ 2.) 5 f.U.P.I.U.U.P.I.U.I.P.P.P.P.P.P.U.3.v 6.) ) ) :         ",
"                            $ ^ 2.) 2.2.^ 3 g.U.P.G.c.d.d.g.N.L.P.P.P.L.V.C.C.) 5 ) <.<.Q $         ",
"                            + V 2.2.2.) W 3 C.L.g.6.<.) ) ) 6.w.V.U.J.d.3.2.) Y > W ) ) x .         ",
"                              4 Q ) ) Q B j Z.a.<.<.<.<.<.<.<.) 9.B.g.2.<.<.<.,.5 3 B 5 w 1         ",
"                              + x Y Y Y 2 8.c.2.<.<.<.<.<.<.) 6.2.0.3.) <.) Y 5 Y b 3 T S.e.        ",
"                              7 m 3 5 2 ,.G.w.) <.<.,.) <.<.6.) <.) <.<.2.^ q 6 : ) 2.a.I.K.m       ",
"                              r.Y.s.w.x.P.V.0.<.<.<.^ v v ! ) 6.2.) 2.<.2.Y } $.. Y <.3.G.U.w.      ",
"                            & M.U.U.U.U.I.B.<.) <.<.) ! 3 + Y <.<.<.6.2.<.^ : O . Y <.<.C.U.N.,     ",
"                            w D.U.U.P.L.I.V.3.2.<.<.) Y v 5 b <.<.^ Y A b Y M + 1 ) <.) p.J.L.V     ",
"                            B H.P.P.P.P.I.H.9.) <.<.) ) <.) 2.) B $ X r O O 0 V ) <.) v ' E N.,.    ",
"                            J H.P.P.P.P.P.g.2.2.3.<.3.<.<.2.) 5 ' U . . . v | 2 ^ ^ 0 Q.*X^.E 4.    ",
"                            ~ H.U.L.P.P.N.3.) Y b B ^ 3.<.2.V n 0.<.Y 0 b ) <.5 1 n Q.=X=X@XU 1.$   ",
"                            >.Z.P.P.P.U.a.) v +._.#.t Y ^ W 2 b <.<.) ) ( ^ ^ 3 W.&X=X=X#XO./ 5.$   ",
"                            >.B.P.P.P.L.i.V X.*X=X=X'.t ` } ` 3 Y ^ W b 3 3 3 P +X=X*X@X[ h N.5.#   ",
"                            >.n.L.P.P.L.a.b #.%X*X=X=X%X*X=X$X+.9 0 q } /.!.!.'.@X[.[.#X+X$.,.1.    ",
"      *                   . R v.J.P.P.P.C.Y ` ].#X#X=X=X=X*X$X+X`./.~.~.W.O.[ P Z w Z $X=X[.B ~     ",
"    D z.e.1         % Z @.o.H c.V.P.P.P.J.p.b t +.^.*X%X+X'.^.$.{ S e x b C Y Q ^ ) 0 #.`.I 4.N     ",
"  % h.y.c.1.    * ] M.XX XS.M f.c.H.P.P.P.H.a.5 ^.%X*X@X[ e v b Y ^ ) <.<.<.<.<.6.p.x.W M 9.4.;     ",
"  > c.~ B.8.. q m..XT.I.I.L.R >.c.C.H.P.P.P.L.V ^.$X#XW.5 ) 2.<.<.<.<.<.<.6.q.d.N.H.Z.v.f.>.:       ",
"  + 5.1./ 4 1 F.T.I.P.P.P.P.n.M 1.c.v.B.Z.P.I.f.U X.E.A 4.w.q.q.w.w.p.d.x.N.A.Z.B.c.s.>.j +         ",
"  = > 8.T + j.U.P.P.P.P.I.P.I.c.C T y.c.v.C.B.A.n.4.T u.Z.V.B.B.N.n.N.n.b.x.u.4.~ M > O             ",
"      : M N J.J.Z.P.P.P.P.P.P.I.Z.4.N N T ,.4.8.t.t.t.t.w.8.4.3.>.~ J N k p - o                     ",
"          / H.6.v.L.P.P.P.P.I.I.U.U.Z.c./ @ a i i u u u i i i i s s d &.%.s @                       ",
"          4.s.J n.L.I.I.I.I.L.I.P.P.P.U.P.y.p d =.-.-.-.-.-.-.-.:.:.;.=.s - X                       ",
"          ~ ~ ~ n.L.L.I.L.I.I.P.P.P.P.P.I.P.n.>.g f %.=.-.;.-.-.=.*.g G 4.h                         ",
"          M N >.N.L.I.I.P.I.L.I.P.P.P.P.I.L.P.I.V.a./ K z l l G L 4.c.Z.1.+                         ",
"          > 2 >.N.L.I.I.P.P.I.P.P.P.P.P.L.n.L.I.I.U.U.U.J.J.J.L.L.I.L.y.;                           ",
"            o R n.L.P.P.I.B.B.P.P.P.P.P.c.y.J.P.L.I.I.I.I.P.I.I.L.Z.u.h @                           ",
"            . H n.L.P.P.P.,.5.U.P.P.P.U.5.~ L.I.L.I.I.L.J.I.L.J.B.8.h >.h                           ",
"              M n.L.P.P.P.R 4.P.P.P.P.U.5.J L.I.I.L.U.s.s.Z.A.x./ h 5.c.h                           ",
"              4 c.L.I.I.P.J t.U.P.P.P.P.u.N Z.P.I.I.U.t./ c.4.k N s.N.Z.c                           ",
"              , f.J.P.P.P.N 8.Z.H.J.J.L.s.j n.P.I.I.U.4.h j , 4.c.n.L.H.b                           ",
"              $ s.Z.P.P.Z.j 8.n.v.v.b.b.s.4 s.I.I.I.U.1..   4 f.c.B.I.L.c                           ",
"              o 4.Z.P.P.n.= h H ~ >.,.>.R = 4.H.I.L.U.1.    ; y.c.Z.I.H.c                           ",
"              . J B.L.U.y.o               . M n.P.I.I./     O >.n.Z.P.J.c                           ",
"                4 f.H.I.H                   $ y.Z.L.Z.R       M c.N.L.Z.x                           ",
"                o M y.>.$                   . N c.c.f.k       + R u.u.>.:                           ",
"                  o > X                       + M T b +         # , , $                             ",
"                                                . o o                                               ",
"                                                                                                    ",
"                                                                                                    "
};
