/* XPM */
static char *Sans_titre__10__removebg_preview__1_1649325585[] = {
/* columns rows colors chars-per-pixel */
"50 50 191 2 ",
"   c None",
".  c #791B3F",
"X  c #5D3D3C",
"o  c #6C4A3B",
"O  c #6E4C35",
"+  c #704D32",
"@  c #765331",
"#  c #351946",
"$  c #3B214C",
"%  c #461D48",
"&  c #5B1C43",
"*  c #42254D",
"=  c #4B274C",
"-  c #59294D",
";  c #4D3558",
":  c #553C5D",
">  c #583857",
",  c #563842",
"<  c #6B2547",
"1  c #79284A",
"2  c #613C52",
"3  c #613D5E",
"4  c #783757",
"5  c #4F3B65",
"6  c #6B4558",
"7  c #76475B",
"8  c #7E5258",
"9  c #4B406D",
"0  c #5C4362",
"q  c #454B79",
"w  c #584B78",
"e  c #52517D",
"r  c #654B65",
"t  c #614460",
"y  c #764B63",
"u  c #774263",
"i  c #6C546C",
"p  c #6A5067",
"a  c #735A6F",
"s  c #765768",
"d  c #68587A",
"f  c #745D73",
"g  c #7C5F71",
"h  c #6B4670",
"j  c #7B6375",
"k  c #7A6378",
"l  c #9B1E3E",
"z  c #931C3E",
"x  c #831C3F",
"c  c #AA1C3B",
"v  c #B31D3A",
"b  c #BD1D39",
"n  c #9E203F",
"m  c #C41E39",
"M  c #D81E36",
"N  c #C9233D",
"B  c #D3253D",
"V  c #D8213A",
"C  c #E6243A",
"Z  c #997326",
"A  c #901F40",
"S  c #8C2343",
"D  c #862849",
"F  c #982141",
"G  c #803350",
"H  c #903154",
"J  c #A32442",
"K  c #AC2441",
"L  c #B3304C",
"P  c #9C3865",
"I  c #D32B43",
"U  c #D7334A",
"Y  c #DC3B50",
"T  c #C32E48",
"R  c #E7354B",
"E  c #E43C51",
"W  c #855558",
"Q  c #836759",
"!  c #846858",
"~  c #95655E",
"^  c #8D715F",
"/  c #8F7357",
"(  c #927557",
")  c #937658",
"_  c #824C68",
"`  c #865768",
"'  c #805D71",
"]  c #90496C",
"[  c #966C67",
"{  c #8B7567",
"}  c #997E65",
"|  c #907460",
" . c #836574",
".. c #826977",
"X. c #836B7A",
"o. c #886A77",
"O. c #8A737E",
"+. c #86707D",
"@. c #92737E",
"#. c #A36E60",
"$. c #AC7663",
"%. c #CF445A",
"&. c #B88F1F",
"*. c #AD8521",
"=. c #D5AA19",
"-. c #DEB41E",
";. c #E1B61D",
":. c #DCB220",
">. c #C8A53D",
",. c #EFC62A",
"<. c #B99A4E",
"1. c #9A8A79",
"2. c #AE8A7E",
"3. c #BE907C",
"4. c #B1886C",
"5. c #C68A69",
"6. c #D3946C",
"7. c #DD9C6F",
"8. c #D69A73",
"9. c #E09F70",
"0. c #EAA875",
"q. c #F3AE75",
"w. c #E2C04C",
"e. c #3D5D90",
"r. c #36588D",
"t. c #3B6095",
"y. c #376AA2",
"u. c #3C7DB6",
"i. c #3A75AD",
"p. c #575985",
"a. c #486798",
"s. c #576792",
"d. c #6B6082",
"f. c #697196",
"g. c #5979A8",
"h. c #4679B0",
"j. c #8B7583",
"k. c #8E7885",
"l. c #887486",
"z. c #937C83",
"x. c #907B88",
"c. c #3C85BF",
"v. c #4785BB",
"b. c #5180B2",
"n. c #3586C3",
"m. c #348AC7",
"M. c #488CC3",
"N. c #4997CF",
"B. c #4B90C5",
"V. c #9A8489",
"C. c #9F898B",
"Z. c #998387",
"A. c #9C8994",
"S. c #A28C8E",
"D. c #A1868A",
"F. c #A6908F",
"G. c #B9978E",
"H. c #A18E96",
"J. c #A69191",
"K. c #AA9593",
"L. c #AE9A96",
"P. c #AC9A9F",
"I. c #B29C96",
"U. c #B29E9A",
"Y. c #B6A19B",
"T. c #BAA69D",
"R. c #868AA9",
"E. c #969EB9",
"W. c #8B94B1",
"Q. c #9AA4BE",
"!. c #BDA9A2",
"~. c #BAA9A8",
"^. c #DBA987",
"/. c #D3B59D",
"(. c #EAB181",
"). c #C1ADA3",
"_. c #C6B3A6",
"`. c #C5B4AD",
"'. c #C9B6A9",
"]. c #CEBBAC",
"[. c #C8B4A7",
"{. c #D0BDAD",
"}. c #D2BAA6",
"|. c #D0BEB2",
" X c #D2C2B4",
".X c #9EADC6",
"XX c #A8BAD2",
"oX c #A3B1C9",
"OX c #AFC4DB",
"+X c #B0C6DC",
"@X c #B1C8DE",
/* pixels */
"                                                                                                    ",
"                                                                                                    ",
"                                                                                                    ",
"                                                                                                    ",
"                                                                                                    ",
"                                                                                                    ",
"                                                                                                    ",
"                                                                                                    ",
"                                                                                                    ",
"                                                                                                    ",
"                                                                                                    ",
"                                                        X.~.~.H.d l.~.P.l.                          ",
"                                                        X.L.'. X`.k.O.S.U.k.                        ",
"                                                        ; : ' D.).!.f A.x.k ;                       ",
"                                                          > u P @.T.l.]. X~.l.                      ",
"                                                        l.j.g ` D.J.j.].|.|.|.S.                    ",
"                                                      k `.).F.).'.[.'.].].].].].O.                  ",
"                                                      U.{.{.{.].].].].].].].].]._.i                 ",
"                                                    X.'.].].].].].].].].].].].].].+.                ",
"                                                    V.{.].].].].].].].]._.j Y.].Y.l.:               ",
"                                    7 u             S.].].].].{.].].]. XV.0 H.'.F.G.o.*             ",
"                                    P Y %.H - _ _ 3 S.'.].].].].].].]. XC.$ O.G.^.0.~ W             ",
"                              0       S N C N L Y H z._.].].].].].].].]._.X.2.0.7.0.0.~             ",
"                              +.j.    ; - K R M M v ' Y.'.].].].].].].].]./.0.6.W 5.$.>             ",
"                              r g j S.U.S.7 T E V m 4 D.T._.].].].].].].}.q.q.~ # = 2               ",
"                              : k k.!.{.'.z.z I E B c y K.Y.T._.'.].]._.^.q.0.6 % = W               ",
"                              : k.P.!.].].T.y c I U V l y F.Y.Y.Y.Y.Y.G.8.0.0.6 P 4 2               ",
"                            X.~.).)._.].].].S.1 v m N N n 6 Z.K.I.I.I.F.6.0.9.p ] 4 $               ",
"                          f [.{.{.].].].].).T.X.< z l n z . - 7 o.C.S.[ 6.6.5.W G.y                 ",
"                        0 !.{.].].{.].].].'.].[.V.6 z v N m m b F D 4 1 W #.7 ; 2                   ",
"                        j !.!.!.)._.'.{.U.I.{.].].L.s 4 S v m B U T c 1 & < 1 =                     ",
"                      ; j.V.V.C.F.U.).U.j !.{.].].).X.U.Z. .` y `  .X.0 c 1 < J                     ",
"                      p _.'.T.)._.).S.a K.{.].].]._..._.}._._.!.T.K.j 2 v 4 % D                     ",
"                      a '.'.z.X.O.a p C.).].].].]. XO.F. X'. X XI.p k { 1 y 6                       ",
"                      a _.).i       : +.K.T._.'.]. XK..._. X'. X!.0 S.J.j Y.j                       ",
"                        J._.X.        r g @.K.Y.T.T.Y.g S.'. X'._.i j U.].'.j                       ",
"                        r X.i         a S.X.a ..O.V.S...p Y. X X!.k.: j !.!.a                       ",
"              o >.}                     j U.L.z.k 6 d R.R.f C.T.U.S.f d.k K.k.0     g >.Z           ",
"                *.,.<.) ) ) ) ) ( ( ( ( Q ^ } } 1./ { 1.1.^ 8 ^ ^ ! ! { ! ) ^ ! / 4.w.=.O           ",
"                , Z =.-.-.-.-.-.-.-.:.-.-.;.-.-.-.-.-.-.-.-.;.-.-.-.:.;.;.;.:.-.-.-.&.@             ",
"                  * X @ @ @ o o o @ @ @ @ @ @ @ @ @ @ @ @ @ @ @ @ @ @ 6 o O @ @ @ O                 ",
"                            e s.w                                   ; p.s.9                         ",
"                          a.N.v.N.a.                                v.B.M.B.q                       ",
"                          m.w l p.m.                              e.m.D S u.y.                      ",
"                          m.h c p.c.                              r.c.D F h.y.                      ",
"                          a.v.g.v.e.                              p.i.b.g.u.q                       ",
"              +X+XOXOXOXOXR.s.a.s.W.OXOXOXOXOXOXOXOX+X+XOXOXOXOXOXXXf.a.a.f..X+XOX+X@X              ",
"                      OXOXOX.XE.oX+XOXOXOXOXOXOXOX+X+X+XOX+XOXOXOX@X+XQ.E.XX@X                      ",
"                                                                                                    ",
"                                                                                                    "
};
