/* XPM */
static char *d63e9d1ad0c94fbdb46f9352c40ca79b0Sb9YOsBoL6gqkGQ[] = {
/* columns rows colors chars-per-pixel */
"50 50 212 2 ",
"   c None",
".  c #6F0D2C",
"X  c #720E2C",
"o  c #74112C",
"O  c #7A142D",
"+  c #7D1A2C",
"@  c #7C0E31",
"#  c #6F1836",
"$  c #721531",
"%  c #7D1231",
"&  c #741B35",
"*  c #7C1A31",
"=  c #741F38",
"-  c #74233C",
";  c #7E2132",
":  c #752A42",
">  c #7C3A4A",
",  c #7B4958",
"<  c #7B515F",
"1  c #7D5865",
"2  c #7F626C",
"3  c #BB2117",
"4  c #831D2C",
"5  c #8B1D2F",
"6  c #82162E",
"7  c #92182E",
"8  c #821332",
"9  c #841933",
"0  c #8B1B33",
"q  c #881634",
"w  c #931C32",
"e  c #9C1C33",
"r  c #A21C35",
"t  c #90282E",
"y  c #8D2333",
"u  c #8D2E35",
"i  c #862936",
"p  c #942133",
"a  c #9B2235",
"s  c #922B33",
"d  c #9E2C38",
"f  c #9B2638",
"g  c #8B3238",
"h  c #97383B",
"j  c #8F242C",
"k  c #A22436",
"l  c #AB2235",
"z  c #AB253A",
"x  c #A42A3B",
"c  c #B32439",
"v  c #BB243A",
"b  c #B32A3D",
"n  c #B82639",
"m  c #A5353D",
"M  c #C2240E",
"N  c #C72914",
"B  c #CA351C",
"V  c #D7330C",
"C  c #C22D3E",
"Z  c #C2263B",
"A  c #CA3335",
"S  c #E44A0B",
"D  c #E85511",
"F  c #EA641A",
"G  c #CF4225",
"H  c #D95734",
"J  c #D24C2C",
"K  c #DE623D",
"L  c #EE7423",
"P  c #F57D2D",
"I  c #EF753C",
"U  c #8A3946",
"Y  c #B22A43",
"T  c #BD2B43",
"R  c #BB2E4A",
"E  c #A83745",
"W  c #B63744",
"Q  c #AF2840",
"!  c #CB2D42",
"~  c #C92E4A",
"^  c #C12D45",
"/  c #D52D43",
"(  c #C63648",
")  c #D33245",
"_  c #D5344B",
"`  c #D33C4C",
"'  c #C63753",
"]  c #D43553",
"[  c #D63C57",
"{  c #DC3F62",
"}  c #894852",
"|  c #8A575C",
" . c #8A4954",
".. c #976457",
"X. c #8F5964",
"o. c #89676A",
"O. c #886975",
"+. c #87787A",
"@. c #B4614C",
"#. c #D85C41",
"$. c #CC4657",
"%. c #D54357",
"&. c #CE4A4F",
"*. c #EA7346",
"=. c #E16842",
"-. c #DB4D69",
";. c #D95566",
":. c #DE5B72",
">. c #CE5B6B",
",. c #E0536E",
"<. c #E05B76",
"1. c #E3726F",
"2. c #F3822E",
"3. c #F78234",
"4. c #B68453",
"5. c #8C817E",
"6. c #C69B5A",
"7. c #F3945C",
"8. c #F49657",
"9. c #F08D53",
"0. c #ED8B62",
"q. c #EA8564",
"w. c #EF9160",
"e. c #887F80",
"r. c #E16C82",
"t. c #E07487",
"y. c #8C8988",
"u. c #8F958E",
"i. c #939995",
"p. c #90958E",
"a. c #B4818A",
"s. c #95A59B",
"d. c #AD9DA3",
"f. c #95ADA0",
"g. c #9BB4A4",
"h. c #9AB9A9",
"j. c #ADADAB",
"k. c #D4848F",
"l. c #E58C9B",
"z. c #E090A1",
"x. c #CEA1AB",
"c. c #CCA8AC",
"v. c #D8A8AC",
"b. c #CFA4B0",
"n. c #D2B3B9",
"m. c #D1ACB1",
"M. c #E7B5BA",
"N. c #E5ABB5",
"B. c #9EC2AE",
"V. c #9FC8B2",
"C. c #A3C4AD",
"Z. c #A4CBB3",
"A. c #A7CBB2",
"S. c #A8D6BA",
"D. c #B5D0BB",
"F. c #D2C4BF",
"G. c #D5BDC7",
"H. c #E2B2C4",
"J. c #9EDFC6",
"K. c #A0DFC6",
"L. c #B2DDCA",
"P. c #A4E3C7",
"I. c #ADE3C3",
"U. c #AAEBC7",
"Y. c #ABE5CA",
"T. c #A8E6C9",
"R. c #B3EECA",
"E. c #B1E9C6",
"W. c #B6F2CB",
"Q. c #BBF5CC",
"!. c #BDF9CD",
"~. c #BFF7D3",
"^. c #BCF4EE",
"/. c #C3CAC9",
"(. c #DFD6D3",
"). c #DCDBD3",
"_. c #D5D6D2",
"`. c #DBCCCD",
"'. c #EAC8CA",
"]. c #E4CFD4",
"[. c #E4C5D0",
"{. c #E3D1D4",
"}. c #E3D2D4",
"|. c #E8D8D8",
" X c #C1FACD",
".X c #C3FECF",
"XX c #C8FFCE",
"oX c #C9FECF",
"OX c #CDF5CF",
"+X c #D6E6D1",
"@X c #D2EDD0",
"#X c #D9E5D3",
"$X c #C5FFD0",
"%X c #C4FFD0",
"&X c #C9FED2",
"*X c #CEF4D0",
"=X c #D0F3D4",
"-X c #C0E4CC",
";X c #EBE3DD",
":X c #E9DEE1",
">X c #CDF3EA",
",X c #CFFCEF",
"<X c #D2FDED",
"1X c #D7F9EB",
"2X c #CDFEF3",
"3X c #D6FFF4",
"4X c #EAEAE3",
"5X c #F1FCEF",
"6X c #EDFDF3",
"7X c #E6FFF6",
"8X c #F1FFF3",
"9X c #E1F6EE",
/* pixels */
"                                                                                                    ",
"                    W.W.W.W.Q.W.W.W.R.W.R.R.R.R.R.W.R.R.R.R.R.W.W.E.W.W.U.T.T.T.Y.                  ",
"                      .X.X.X X.X%X X X X X X X X X!. X XQ. X!.!.Q.!.!.!.R.T.T.Y._.                  ",
"                        P.K.K.P.K.K.K.K.K.K.K.K.P.P.P.P.T.T.U.U.U.U.U.U.P.J.L._.{.                  ",
"                        W.R.!.!.%X X$X%X!.!. X X!.!.!.!.!.Q.Q.Q.W.Q.W.Q.W.U.-X(.].                  ",
"                        $XW.B.s.s.s.s.f.g.g.g.h.h.C.C.C.A.A.A.A.S.S.S.D.I.R. X).].                  ",
"                        .X%X+.. $ $ $ $ $ $ & & ; - - & - ; - - - - - : s..XoX(.{.                  ",
"                        .X.X+.. X o X o X X X o + o o X X o o o o o X # f.$XoX).{.                  ",
"                        XX%Xy.. X o o o X o o o $ o $ o o o o X o o . # B.!.XX}.{.                  ",
"                        XX.Xy.. X o X X o o X X + o O o o o o o o o . - V..XOX}.{.                  ",
"                        XX.Xu.. . o X o X o X $ * o * $ o o X o o o $ - Z..XOX}.{.                  ",
"                        .X.Xu.. . X o o X o o * * o % 9 O o O O + + + ; S..X@X{.                    ",
"                        XX$Xi.$ . X o o o o 9 9 6 9 0 y u 4 4 4 4 4 + , I.XX+X].                    ",
"                        XX$Xi.o . $ o O + 0 s a w a a a d y 4 4 4 + o , E..X+X].                    ",
"                        XX$Xs.$ . o 4 5 0 s E w E E d a x s j 4 4 4 o | R.XX#X].                    ",
"                        XX$Xs.$ . o 4 5 y f a E j.d.d.E x x w y 4 + o o.Q.XX#X].                    ",
"                        .X&Xg.$ . o 4 y p m l a.^.j.^.t.f x a y 4 + + +.Q.XX).].                    ",
"                        XX$Xg.& . O 5 k c C ( /.2Xm.>X/.E E x w 5 + O 5.!.XX(.].                    ",
"                        XX&Xh.& X O 5 l Z / >.>X2Xm.>X>X>.A b k w 4 + y.!.oX(.].                    ",
"                        XX&XB.- X o j l ! A k.,X,Xn.>X,Xk./ C n l 7 4 u..XoX(.].                    ",
"                        XX&XC.- . O p c ! ) v.,X<Xn.1X3XN._ ) v l e 4 s..XOX{.                      ",
"                        .XXXZ.- . 6 p n ) _ F.<X<XG.9X6XH._ ) Z l e y f..X=X}.                      ",
"                          XXS.- . 9 p n ) [ _.<X1X].9X7X|.;.[ ! v e i h.XX@X{.                      ",
"                          .XS.> * y d v _ %.).7X7X|.6X7X;Xr.,.[ ) r g V.XX@X{.                      ",
"                          XXS...4.u m C _ [ M.;X4X(.4X9X|.r.,.[ ( b U S..X+X{.                      ",
"                          XXS.} i 5 f b _ [ l.H.[.`.{.[.N.:.,.[ ! c U S.XX#X].                      ",
"                          XXI.> + u m A ` -.;X8X6X4X6X6X|.-.%.] ^ r } I.XX).{.                      ",
"                          &XI.| 6.4.@.b &.<.|.8X6X|.6X8X|.-._ ! v r  .E.XX).{.                      ",
"                          XXI., ; i u c %.<.'.8X8X|.8X8X'.,.) A l e X.E.&X).                        ",
"                          XXE., X 4 j c ;.,.N.5X5X].5X8XM.<.` Z r 7 o.R.&X).                        ",
"                          XXE.< X + 0 c -.,.l.5X5X'.5X5Xl.<.%.c r 7 o.W.=X}.                        ",
"                          oXR.< X + 0 b -.-.r.4X5X'.5X4Xr.;.%.c a 5 +.!.OX}.                        ",
"                          XXW.1 X + 5 Y $.;.-.M.5X'.5XM.-.-.$.Q q 0 y.%X=X}.                        ",
"                          XXW.1 X + j Y ` ;.[ <.;X'.;Xr.{ -.' Y q 0 u.%X@X{.                        ",
"                          &XQ.1 O + p b T >.` ] r.l.t.{ [ $.' Q 5 0 s.!.+X{.                        ",
"                          $XW.o.o * f z T &.&.~ ] _ _ _ $.' R Y q i f.%X+X{.                        ",
"                          XX!.O.O 4 a z c W &.~ ~ ~ ~ ( &.R Y Y 0 i h.$X#X                          ",
"                          XX!.2 O 0 a l c b &.( T T W ( W z Q Q 0 i B.$X).                          ",
"                          &X!.+.6 0 p a a k m @.Y z E W z x f f 0 U V.$X).                          ",
"                          $X!.e.6 9 w p p p a m m m m x a k k f 0 U V.&X).                          ",
"                          &X.Xy.@ @ 8 8 q 5 0 d d f E f f f a a w } S.oX}.                          ",
"                          &X%Xy.@ @ 8 8 8 8 8 0 y q 0 0 w w w a q | T.OX|.                          ",
"                          &X%Xu.8 @ @ 8 @ 8 @ 0 9 8 q q 8 8 q q 8 X.R.*X|.                          ",
"                          &X&Xi.@ o o O O 8 @ 9 9 8 q 8 8 8 8 % 8 X.W.*X}.                          ",
"                          &X&Xf.* X % % % O % * % % 9 8 8 8 8 8 8 e.R.#X                            ",
"                            @XL.x.v.x.x.x.x.x.x.b.b.b.b.x.x.b.b.b.G.>X#X                            ",
"                            *.8.7.7.7.7.7.w.w.w.w.0.0.0.0.0.0.0.q.q.1.K                             ",
"                        *.I 3.3.P P P P 2.2.2.2.2.P L L F F D D S S S V N N                         ",
"                  *.*.=.#.K K K H H H H H H H J H J G G G G B B B B N N M 3 M M                     ",
"                  h h h g g u g u g u u u u u u u t s t t t t t j                                   "
};
