/* XPM */
static char *f14b2338fc0f4e8dffe3b04fffdafd435cKnIKOnBV3sL0K8[] = {
/* columns rows colors chars-per-pixel */
"50 50 235 2 ",
"   c None",
".  c #3A3D13",
"X  c #393E0F",
"o  c #710D2B",
"O  c #790E2D",
"+  c #74112D",
"@  c #7A142E",
"#  c #7D1A2B",
"$  c #7C1530",
"%  c #6F0B2A",
"&  c #79263B",
"*  c #423B14",
"=  c #3A4C04",
"-  c #3F5901",
";  c #3A4111",
":  c #445901",
">  c #505116",
",  c #5A7107",
"<  c #50620B",
"1  c #657906",
"2  c #63741B",
"3  c #6B712A",
"4  c #51622A",
"5  c #686E46",
"6  c #725C66",
"7  c #797878",
"8  c #77676E",
"9  c #7F4D58",
"0  c #98161D",
"q  c #A7281C",
"w  c #A2330F",
"e  c #821C2B",
"r  c #8A1F2D",
"t  c #84152E",
"y  c #941622",
"u  c #861832",
"i  c #961C34",
"p  c #85222D",
"a  c #8A212F",
"s  c #9D382D",
"d  c #8D2432",
"f  c #872A3B",
"g  c #942C35",
"h  c #982635",
"j  c #993638",
"k  c #9F2224",
"l  c #A32A39",
"z  c #A9263B",
"x  c #AD393E",
"c  c #AC373D",
"v  c #B1363E",
"b  c #B1322D",
"n  c #C33F19",
"m  c #CD3E23",
"M  c #9C4F3E",
"N  c #A6452E",
"B  c #B64F34",
"V  c #B54E14",
"C  c #D6531B",
"Z  c #CA4B2F",
"A  c #D96616",
"S  c #9A3749",
"D  c #9A3754",
"F  c #923244",
"G  c #AB3D42",
"H  c #A43A47",
"J  c #B2344E",
"K  c #C23851",
"L  c #8B4A59",
"P  c #8F4756",
"I  c #AA4849",
"U  c #B34B4B",
"Y  c #B54C46",
"T  c #B64454",
"R  c #AD5451",
"E  c #895964",
"W  c #925C61",
"Q  c #A25862",
"!  c #966669",
"~  c #8D6970",
"^  c #A96C71",
"/  c #B1744B",
"(  c #C6474B",
")  c #C74B67",
"_  c #C7556A",
"`  c #D5576A",
"'  c #D16877",
"]  c #D56853",
"[  c #6A8607",
"{  c #74960E",
"}  c #7F847F",
"|  c #778847",
" . c #899807",
".. c #8D8F11",
"X. c #97A905",
"o. c #8CA914",
"O. c #A7AC0C",
"+. c #98A52D",
"@. c #96C217",
"#. c #CEC42F",
"$. c #DEE63C",
"%. c #E4F537",
"&. c #8E8E6F",
"*. c #91AA6F",
"=. c #8B9857",
"-. c #DD8976",
";. c #93C753",
":. c #D7D243",
">. c #E2F272",
",. c #E3DD54",
"<. c #BF7A82",
"1. c #C37D84",
"2. c #5DE6DB",
"3. c #6FE7DD",
"4. c #7FF0EA",
"5. c #88978A",
"6. c #999685",
"7. c #8D8982",
"8. c #8DAA96",
"9. c #ABA895",
"0. c #B6AA99",
"q. c #97BAA6",
"w. c #95A6A4",
"e. c #BABAB4",
"r. c #BABAB2",
"t. c #AEB5AD",
"y. c #AE8790",
"u. c #D4858F",
"i. c #E19F90",
"p. c #E3A395",
"a. c #E5A99A",
"s. c #EEAF91",
"d. c #DBA9AF",
"f. c #CBADB2",
"g. c #D7ABB3",
"h. c #C6B8B7",
"j. c #D3B5BB",
"k. c #E2A8B6",
"l. c #E3B5B9",
"z. c #F2BBA7",
"x. c #D49F9F",
"c. c #9DCAB4",
"v. c #9CDDBB",
"b. c #96DCBA",
"n. c #9BC1AE",
"m. c #A4CFB9",
"M. c #AACCB8",
"N. c #BDC2BB",
"B. c #B3C7B8",
"V. c #A5D9BD",
"C. c #B1D1AF",
"Z. c #97E1BB",
"A. c #98E0BB",
"S. c #9CCB93",
"D. c #D9DA9E",
"F. c #F9C39D",
"G. c #C2C3BD",
"H. c #C1D0B3",
"J. c #FACAAD",
"K. c #F9C5A9",
"L. c #FACBB3",
"P. c #DAE799",
"I. c #D8BDC3",
"U. c #E4B9C1",
"Y. c #9DDFC5",
"T. c #ADDCCD",
"R. c #9CE8CB",
"E. c #A2E1C6",
"W. c #A5E6CA",
"Q. c #A9E7C9",
"!. c #ACECC9",
"~. c #ABEAC5",
"^. c #B2EECB",
"/. c #B7E9C4",
"(. c #B4F1CB",
"). c #BDF6CC",
"_. c #BEF9CD",
"`. c #BAF4DD",
"'. c #ADEED5",
"]. c #98EEE6",
"[. c #89F2EA",
"{. c #97F3EA",
"}. c #83EAE0",
"|. c #A5F3EB",
" X c #ACF4EB",
".X c #B4F4EC",
"XX c #BBF6EC",
"oX c #B9F7E9",
"OX c #C7C6C3",
"+X c #DCC5CA",
"@X c #DDC7CC",
"#X c #C8D7CC",
"$X c #D8D8D2",
"%X c #DADBCD",
"&X c #E2C9CB",
"*X c #E2CED2",
"=X c #E3D0D4",
"-X c #E9D7D1",
";X c #C2FACD",
":X c #C8FFCE",
">X c #C8E8D8",
",X c #D7E5D2",
"<X c #C5F5DB",
"1X c #CDEBD1",
"2X c #ECE2DD",
"3X c #E4F1D0",
"4X c #DAEAE2",
"5X c #C3F6ED",
"6X c #C5F9EE",
"7X c #CBF9ED",
"8X c #C8F8E5",
"9X c #D4FBED",
"0X c #DCFCED",
"qX c #D6F6E9",
"wX c #CCFAF2",
"eX c #C9F8F1",
"rX c #D4FAF3",
"tX c #DCFBF4",
"yX c #D8FFFC",
"uX c #CAECE1",
"iX c #EBEBE6",
"pX c #E8ECE5",
"aX c #E3FDEC",
"sX c #E6F6E8",
"dX c #E4FAF5",
"fX c #EBFBF4",
"gX c #E4FFFC",
"hX c #EBFFFE",
"jX c #E5F7F2",
"kX c #F3FFF5",
"lX c #F0FFF4",
"zX c #F2FFF5",
"xX c #F4FEFC",
"cX c #FDFFFE",
"vX c #F4E7E5",
/* pixels */
"                                                                                                    ",
"                    (.(.(.(.(.(.(.^.(.^.^.^.^.(.^.(.^.^.^.^.^.^.!.^.(.!.Q.Q.W.Q.                    ",
"                    :X;X;X;X:X;X;X;X;X;X<X)._.;X_./.C./.;X;X;X)._.).).(.Q.Q.Q.#X=X                  ",
"                      ^.E.E.E.E.E.E.E.E.E.E.E.E.W.0.I L &.n.Q.!.!.~.~.~.R.E.#X*X=X                  ",
"                      qX<X<X;X;X;X).).).).).(.).:X0.S % O $ 9 5.m.~.(.~.!./.$X=X=X                  ",
"                      kXjXuX`. X'.'.'.R.R.R.Y.R.R.0.S % O O + + & ! 9./.^.;X1X=X=X                  ",
"                      zXkXrX4.4.[.{.].].].}.3.3.2.q.I % + + + + o o o 8 (.:X,X=X                    ",
"                      zXzXrX[.[.{.{.|.|.|.|.|.|.{.t.D % + + + @ + O o 6 ~.:X,X*X                    ",
"                      kXzXqX[.[.].].|. X X|.|. X|.e.H + + + + + o + % 6 b.;X,X*X                    ",
"                      kXzXtX{.{.{. X X X X X X X Xe.H + + + + + + + o 8 b.~.$X*X                    ",
"                      kXzXtX|.{. X X X X.X X.X X Xe.H # @ + @ @ + + % 8 b.v.$X*X                    ",
"                      kXxXtX|.|. X.X.X.X.X.X.X.X.XN.G # # # # $ @ % % 7 Z.v.$X*X                    ",
"                        kXdXeXwXeXXXXXXX.X.X.X.X.Xe.c # p p p $ u O % 7 b.V.$X=X                    ",
"                        kXdXtXtXtXrXrXtX6X.XXX.XXXN.c # # p p i u O % } Z.V.*X=X                    ",
"                        kXfXtXtXtXtXtXtXwXoXXXXXXXN.c # e r f H i @ % } Z.E.=X                      ",
"                        kXfX9XrXrXrXrXyXwXwXwX6XXXN.c # e e ! y.H r o 7.v.M.@X                      ",
"                        zXfX5X5X5X5XXX5X5X5X5X5XXXG.v # e a w.OXT i @ 5.b.M.j.                      ",
"                        zXfX5X5X5X5X5X5X5X5X5X5X6XOXG # e f T.$X_ i # 5.Z.r.f.                      ",
"                        kXfX7X5X5X5X5X5X5X6X6XwX6XOXN e # F T.$Xu.H $ 5.Z.r.f.@X                    ",
"                        kXfX9XeX8XeXeXeX6X6XeX7XwX#XG # # D T.4Xx.H $ 5.Z.r.j.*X                    ",
"                        kXfXqX8XeXwX7XwXeX7X7X7XwX#Xx # e L uX4XU.T $ 8.Y.r.I.=X=X                  ",
"                        kXfXtXeX9XrX7X7X9X7X7X7XtX$XN # e W uXpXU.T F 8.c.r.I.=X=X                  ",
"                        kXfXqX7X7X9X7X9X9XrXqXtXdX$XI # @ ! qXpXU._ F 8.b.f.I.=X=X=X                ",
"                        kXkXjXrX9X9XqXfXqX9XqXrXrX$XY j e ^ qXiXU._ D w.b.f.@X=X=X                  ",
"                        kXkXdXyXdXtXfXcXfX0XtXaXrX,XY / e Q @X2XU.) J q.Y.f.I.=X=X                  ",
"                        kXfXdXgXdXdXcXcXxX0X0X0X0X$XY a e I d.&Xk.) D t.T.f.@X=X=X=X                ",
"                        kXlXfXgXgXhXfXfXxXaXqX0X0X,XU M j ^ iXiXU.) D n.t.f.*X*X=X                  ",
"                        kXlXfXxXhXdXoX>XqXfXaX0XdX,XR / I ^ iXiXk.) D n.B.f.*X*X=X                  ",
"                        kXfXfXxXgX7X8X`.<XqXaXfXcX2XU # # Q 2XsXk.K J n.B.j.*X=X=X                  ",
"                        kXzXxXhXyXwX8X8X<XuXaXkXcXvXU e # Q 2XiXp.K D n.N.I.=X=X=X                  ",
"                        zXzXfXgXyXrX9X8X<X8XqX4XjXvXY e p P -X2X1.K D c.G.I.=X=X=X                  ",
"                        zXzXdXgXgXdX0X0X8X9XuX'.<X1XI e e S L.2X' J P c.h.+X=X=X=X                  ",
"                        kXkXfXhXhXfXfXdXaX:XoX<X`.V.I p e j d.-X` J D c.h.+X=X=X=X                  ",
"                        kXkXfXdX<X#XpXpXD.>.<X`.0.C.I p r g u.l.( z P m.I.@X=X=X                    ",
"                        kXlXjX>X| | *.;.C.C.~.'./.$XU p e g T ` J J L m.h.*X=X=X                    ",
"                          lXsXC.3 3 2 M *.S.;.;.P.D.B # r g z z v i L M.I.*X*X=X                    ",
"                          kX3X:.+.3 3 > V A #.>.>.$.B p # j l z v i E M.I.*X=X=X                    ",
"                          kX3X:.#.[ 4 > w C ,.>.%.%.B # # g j l z y E B.I.*X=X=X                    ",
"                          kX3X#.O.V .. ...+.+.{ @.o.N p # g s l z t E B.I.=X=X*X                    ",
"                          fX,X2 < , 1 X.X.X.[ [ { { N # # p j g i t E N.+X=X=X                      ",
"                          lX#X< - 1 X.X. .[ [ [ { { N e # r g d r t E N.&X=X=X                      ",
"                          aX>X4 : [  . ., [ , 1 1 1 s e # d g d r @ ~ N.*X=X=X                      ",
"                          aX>X5 > , , < : - : - - : s p e a g d u O ~ N.*X*X=X                      ",
"                          fX,X5 > ; ; ; = = = = = > s r # r d $ $ O ~ I.*X*X=X                      ",
"                          kXsX5 * ; . . X X . . . * s r # # @ + O % ~ I.*X=X=X                      ",
"                          kXpXh.t.0.0.9.9.&.&.6.6.&.I u o + + $ F ^ t.+X=X*X=X                      ",
"                          J.K.J.J.J.J.K.K.K.K.J.J.z.Y t o p q b ( R R <.I.*X                        ",
"                      L.K.K.F.F.F.F.F.F.F.K.F.F.F.s.Z b n C C b q 0 0 y H 1.                        ",
"                  a.z.a.a.a.a.p.p.p.p.p.p.p.i.-.] Z Z m n k y y y y y y 0 y 0                       ",
"                                                                                                    "
};
