/* XPM */
static char *Sans_titre__7___1_1649322619[] = {
/* columns rows colors chars-per-pixel */
"50 50 44 1 ",
"  c #5B3E29",
". c #5E402B",
"X c #63432E",
"o c #674731",
"O c #664931",
"+ c #6C4C34",
"@ c #6C4E38",
"# c #714E35",
"$ c #6E5135",
"% c #725136",
"& c #75543A",
"* c #7A563B",
"= c #77583E",
"- c #7C5A3D",
"; c #7F603F",
": c #7D5C41",
"> c #7F6044",
", c #815D3E",
"< c #82603F",
"1 c #825E41",
"2 c #856243",
"3 c #896545",
"4 c #8D6946",
"5 c #856649",
"6 c #8B6748",
"7 c #876849",
"8 c #8E6A49",
"9 c #906C47",
"0 c #916D4A",
"q c #8F704E",
"w c #95724D",
"e c #99744F",
"r c #936F50",
"t c #957351",
"y c #9A7651",
"u c #9D7953",
"i c #9D7B59",
"p c #A07C55",
"a c #A17E59",
"s c #A38057",
"d c #A4825B",
"f c #A9875F",
"g c #A98760",
"h c #AA8963",
/* pixels */
"u80r0rrrrrtrtyuiiiiiiiyyiyutw00989898844340eeetew3",
"u722333366980000rrtrwwtwttwttw00444344348000980408",
"y006888808900r000w0wwweetewweettwewewwwewwwwwwwwe8",
"twe48808009333634690ewwettyytyyyueyeeeeeyteewwwsy4",
"ewe98688994644948490908999000909w9w90000009w080pu<",
"eeuwr1&,****,-,,,-*-,<;;,,,,,,,<<<---,,1,,-<99epe<",
"eeuww9.ooXo@#+*#&%&-*;;-%#ooXo+%&%&&&%%%++o>swwpe-",
"yepww1X+*&&*2,61357w9ee91:%*o%&12;44442****5swwpw*",
"yeyew<O#,,,-18r900wpeppe3:1:#*1194eww01127-2s0epe*",
"pepew<X%*,1,,3w8000pyppe3*1:%*1694ee422344&5uwyue<",
"uepew<.$**13116r90wpyppe3*1:&*:188y9323047*>uwyup<",
"uepu9; X*,,33318ww<eyppw2*11*1119904230474$;s9yup<",
"uepuw<O+#*,136318w09eppw1:111111904<2ww83*#2sqwue<",
"supuw<+-*#-118443yw40pew:161*111w423ew88*#25d9wys<",
"auuuw<+<6:#-140988y90pp0113611rr435ew84&%<55u89yp<",
"ueupw<+-08*#,18r0980wepr111618p843ew04&-<325u99wu<",
"weepe4$,803&%,38w0000pu942744aw44eew3$$8422qe48we3",
"eeppe<$-0w8<&*230yw09eu9424way94euw2&$;w4228e88we3",
"yeupw<$*80834>,44wpww0uw<3wgp04eue<*<44w82<7e449e3",
"yepse<#*4043qw-,68wpee0e4wfsw9eyy9-<ee7q83>8e44ww3",
"ywuu0<%*49420w4-,49upueeyfse9wuew-;wue6694<5y448w3",
"wwuuw3%*59924w00-,9wuppsfse0wuye<-4ypt44w2;5y44903",
"99euw3&*10914w0e3,,90usspe00uee3289uue34q2-3y42902",
"4wue03&:109*2w9090-20ussw09ueu<>ew9uuw5404-5u4<803",
"4wue84&-198*1099wy4>9sue9wuee4;8uw9uu92304-2t42003",
"49ue98&;189*2e90wy8tuu099eeu<<wep0wup91407-2y44993",
"q9uw98&2184-7e09eeeue999eee<;8weu99uu92308-1u62902",
"8qu998&>17016e00yuuw888wee<<weqeu00yu93380-:u42902",
"8wu40w&<24429eyyuu04849ew2-39yy9000eur3380:*i23002",
"w0e409&-1342wwppu43349ew;%9w98wy90weyr2380:*u3100,",
"qww4w0&;14420wue43348wq-.$4e9849t94yu02388-*023002",
"8w03w8&-1442www33230w8;$@;-4y9444t44y01764-=431t0,",
"we84w4$*2433rt22279001:1*17*1yr33609861668*-322w0-",
"8t45w2+&2436r1123806:%16*161#1r01310663168**312w8#",
"4w43w*O&206y1126407*%186*1211:160111061166*&21203#",
"4w33w*O*30r1113803*%1681*12111#:9031181166*&31201#",
"4w3<w*O*681113682**166r1*:1111:X*161,11111*&1,203#",
"80339*O-1,111861**111616&*1*11#:*#141-111:&&11386#",
"7033w*$:1111611,:1616651#*1*11:13%#,21,*1*%*11666%",
"54329-+%&1161*#1rr616161@1**11:14,*#11****#%11363*",
"143<61X@*111:o1ruw211211#:::*1:2932:#11:&*@@11663*",
"34<331X@111#o:rpaw2:1111#:*&*1*16266#o11*#o:11612-",
"143131 o#:X $200t4&::::@o#@oo#@:1*:51oX##ooo11612-",
",3,311:::@:@50t0rr::15::o::::11277661:@#:#::6116,-",
"331113yaiiuiiiiipaappagaaaiiauaaaaaapahpaaaa6,16<-",
"133,16666669998000000wwetyyyeewteee0weyyyyyrr111<*",
"3133600r0rrttttrwwwwww00r0r8900wwetyuyuuuuupau01<*",
"11188r00000000000008463666889999499000rryyyuupu8<*",
"11111133<93<93,3<4<9449wwyyyyyeee0434999999999<e<-",
"&###########**#o+*,,349988433231,*%###****---****#"
};
